# xmcd
#
# Track frame offsets: 
#        150
#        17380
#        40791
#        56870
#        74530
#        99175
#        118876
#        148008
#        169036
#        192769
#
# Disc length: 2881 seconds
#
# Revision: 0
# Processed by: cddbd v1.5.2PL0 Copyright (c) Steve Scherf et al.
# Submitted via: ExactAudioCopyFreeDBPlugin 1.0
#
DISCID=860b3f0a
DTITLE=Yonder Mountain String Band - Black Sheep
DYEAR=2015
DGENRE=Bluegrass
TTITLE0=Insult and Elbow
TTITLE1=Black Sheep
TTITLE2=Ever Fallen in Love
TTITLE3=Annalee
TTITLE4=Landfall
TTITLE5=I'm Lost
TTITLE6=Around You
TTITLE7=Love before You Can't
TTITLE8=Drawing a Melody
TTITLE9=New Dusty Miller
EXTD=
EXTT0=
EXTT1=
EXTT2=
EXTT3=
EXTT4=
EXTT5=
EXTT6=
EXTT7=
EXTT8=
EXTT9=
PLAYORDER=
